<?xml version="1.0" encoding="UTF-8" standalone="no"?>
<svg
   width="531.81598"
   height="700"
   viewBox="0 0 531.81598 700"
   version="1.1"
   id="svg12"
   sodipodi:docname="Virtus_Entella.svg"
   inkscape:version="1.1.2 (b8e25be833, 2022-02-05)"
   xmlns:inkscape="http://www.inkscape.org/namespaces/inkscape"
   xmlns:sodipodi="http://sodipodi.sourceforge.net/DTD/sodipodi-0.dtd"
   xmlns="http://www.w3.org/2000/svg"
   xmlns:svg="http://www.w3.org/2000/svg">
  <defs
     id="defs16" />
  <sodipodi:namedview
     id="namedview14"
     pagecolor="#ffffff"
     bordercolor="#666666"
     borderopacity="1.0"
     inkscape:pageshadow="2"
     inkscape:pageopacity="0.0"
     inkscape:pagecheckerboard="0"
     showgrid="false"
     inkscape:zoom="0.35928571"
     inkscape:cx="160.03976"
     inkscape:cy="378.52883"
     inkscape:window-width="1366"
     inkscape:window-height="705"
     inkscape:window-x="-8"
     inkscape:window-y="-8"
     inkscape:window-maximized="1"
     inkscape:current-layer="svg12" />
  <g
     id="g127"
     transform="translate(-0.001)"
     inkscape:export-filename="Virtus_Entella_bitmap_logo.png"
     inkscape:export-xdpi="96"
     inkscape:export-ydpi="96">
    <path
       d="m 397.944,750 a 9.7,9.7 0 0 1 -3.206,-0.548 L 259.68,701.933 c -3.962,-1.193 -44.413,-13.796 -69.592,-38.308 -24.106,-21.548 -52.185,-54.569 -55.976,-119.086 l -0.02,-0.706 V 61.981 c 0,-6.617 5.364,-11.981 11.98,-11.981 h 507.856 c 6.617,0 11.98,5.364 11.98,11.981 v 481.852 l -0.02,0.706 c -3.79,64.521 -31.87,97.538 -55.976,119.087 -25.179,24.513 -65.63,37.114 -69.591,38.307 l -135.06,47.52 A 9.7,9.7 0 0 1 402.057,750 Z"
       style="fill:#1d1d1b"
       transform="translate(-134.091,-50)"
       id="path2" />
    <path
       d="M 400,59.657 H 143.748 v 484.25 c 3.517,60.144 28.552,90.901 52.931,112.658 24.499,23.962 65.986,36.182 65.986,36.182 l 135.279,47.596 h 4.112 l 135.28,-47.596 c 0,0 41.486,-12.22 65.985,-36.182 24.38,-21.757 49.415,-52.514 52.931,-112.658 V 59.657 Z"
       style="fill:#ffffff"
       transform="translate(-134.091,-50)"
       id="path4" />
    <path
       d="m 400,189.78 v 538.492 l 133.33,-46.911 q 0.295,-0.105 0.595,-0.193 c 0.386,-0.114 38.86,-11.62 60.956,-33.232 q 0.198,-0.193 0.403,-0.376 c 22.292,-19.894 45.523,-47.812 48.898,-104.01 V 189.78 Z"
       style="fill:#6eb3de"
       transform="translate(-134.091,-50)"
       id="path6" />
    <path
       d="m 472.407,37.612 h -21.495 l -27.282,72.245 h 21.081 l 5.02,-15.618 h 23.857 l 5.02,15.618 h 21.08 z m -10.748,41.606 h -7.086 l 7.086,-21.22 7.087,21.22 z m -90.245,30.639 V 37.612 h 19.55 v 54.84 h 31.593 v 17.405 z m -59.906,0 V 37.612 h 19.551 v 54.84 h 31.592 v 17.405 z M 290.675,81.007 V 65.627 H 262.868 V 54.274 h 35.944 v -16.66 h -55.435 v 72.244 h 56.687 V 93.345 H 262.868 V 81.007 Z m -212.44,0 V 65.627 H 50.427 V 54.274 H 86.37 V 37.614 H 30.936 v 72.244 H 87.623 V 93.345 H 50.428 V 81.007 Z m 96.742,-25.661 h 20.118 v 54.51 h 19.313 v -54.51 h 20.207 V 37.612 h -59.638 z m -59.279,-17.734 30.519,40.295 h 0.715 V 37.612 h 19.194 v 72.245 H 149.078 L 118.32,70.158 v 39.699 H 98.65 V 37.612 Z M 265.687,179.02 q 9.197,5.825 16.692,8.756 c 1.296,0.51 3.44,1.25 6.432,2.23 a 1006,1006 0 0 0 17.039,5.392 c 3.104,0.954 6.54,2.258 9.304,3.379 2.364,0.957 5.259,2.569 8.684,4.827 q 0.432,0.286 0.855,0.43 a 0.876,0.876 0 0 0 1.007,-0.346 30.3,30.3 0 0 0 3.999,-8.756 q 2.028,-7.319 2.443,-14.57 0.308,-5.351 -0.927,-10.394 c -0.213,-0.867 -0.267,-2.33 0.642,-2.83 1.653,-0.913 2.386,0.102 3.486,1.44 7.922,9.651 13.74,20.655 16.003,32.815 q 0.828,4.443 0.892,8.416 c 0.094,5.814 0.09,9.822 -0.015,12.015 q -0.226,4.776 -0.978,10.213 c -0.093,0.693 0.018,1.46 0.332,2.164 q 3.55,7.983 5.645,17.071 c 1.617,7.014 3.274,13.132 4.79,20.443 a 0.91,0.91 0 0 1 -0.325,0.903 c -4.627,3.686 -8.742,7.856 -11.723,12.814 q -1.403,2.33 -2.064,4.568 a 0.207,0.207 0 0 0 0.133,0.257 l 0.094,0.032 a 0.16,0.16 0 0 0 0.199,-0.094 q 0.36,-0.878 0.48,-1.052 3.774,-5.55 7.9,-9.178 c 6.435,-5.663 13.888,-9.876 21.604,-14.054 0.762,-0.412 1.61,-1.07 2.35,-1.604 1.241,-0.893 2.122,-0.712 2.595,0.686 q 2.349,6.939 2.847,13.519 c 0.996,13.161 -1.53,26.311 -7.687,37.925 -4.836,9.125 -13.347,18.239 -24.456,18.578 a 33,33 0 0 1 -7.496,-0.61 q -1.125,-0.228 -2.284,0.563 -0.12,0.082 -0.217,0.195 c -11.675,13.526 -27.072,22.557 -43.63,29.575 a 81,81 0 0 1 -6.226,2.334 q -0.585,0.19 -0.996,0.734 a 0.6,0.6 0 0 0 -0.12,0.444 q 0.557,4.341 4.23,6.01 11.235,5.091 17.93,8.275 4.693,2.233 8.864,4.416 c 1.022,0.535 1.783,1.17 2.512,2.081 4.277,5.338 8.832,12.493 13.596,18.495 q 5.062,6.374 23.993,30.413 a 66,66 0 0 1 4.205,5.995 c 4.494,7.238 11.12,17.91 19.886,32.017 1.08,1.73 0.885,3.371 -0.58,4.914 a 1427,1427 0 0 0 -5.884,6.212 q -1.664,1.778 -9.38,10.097 c -0.7,0.755 -1.227,1.496 -1.858,2.204 a 0.39,0.39 0 0 0 -0.036,0.474 c 1.375,2.117 2.396,4.105 0.397,6.262 q -1.257,1.36 -4.18,3.838 c -1.721,1.456 -3.706,2.645 -5.908,1.507 q -7.064,-3.658 -11.553,-7.304 -1.25,-1.014 -3.551,-3.118 c -1.263,-1.157 -2.776,-0.578 -3.494,0.817 q -0.304,0.59 -1.079,1.105 c -0.307,0.206 -0.693,0.25 -1.036,0.12 -1.599,-0.597 -3.815,-1.496 -6.64,-2.7 a 7,7 0 0 1 -1.285,-0.69 0.554,0.554 0 0 1 -0.21,-0.632 c 0.083,-0.242 0.26,-0.687 0.53,-1.327 1.325,-3.1 -0.425,-7.006 -1.443,-10.2 q -1.91,-5.984 -1.642,-11.843 c 0.293,-6.44 4.129,-12.633 8.153,-17.584 1.664,-2.049 2.635,-4.228 3.183,-6.468 a 0.81,0.81 0 0 0 -0.314,-0.853 319,319 0 0 0 -32.402,-20.475 0.234,0.234 0 0 0 -0.325,0.105 q -2.47,5.14 -3.97,8.69 -1.663,3.94 -2.032,7.43 c -0.188,1.81 -0.43,3.148 -0.321,4.546 q 0.375,4.927 1.36,8.153 1.516,4.958 4.342,12.503 c 1.992,5.326 3.436,9.533 5.392,15.213 4.945,14.372 12.92,27.656 22.186,39.69 5.25,6.825 10.574,13.001 15.963,18.534 a 686,686 0 0 0 10.74,10.743 q 4.088,4.004 10.164,9.078 11.27,9.41 24.614,16.268 a 54,54 0 0 0 4.36,1.995 0.248,0.248 0 0 0 0.336,-0.275 c -0.35,-1.965 -0.625,-5.796 -1.433,-8.705 q -1.295,-4.676 -3.53,-11.358 -0.298,-0.905 -0.162,-1.658 c 0.09,-0.503 0.689,-0.752 1.205,-0.503 q 0.713,0.342 1.325,0.965 4.117,4.225 12.36,12.373 1.701,1.685 6.93,6.165 a 57.6,57.6 0 0 0 9.568,6.65 c 1.78,0.986 3.938,1.73 5.742,2.58 q 2.67,1.25 2.195,4.112 c -0.303,1.814 -1.502,1.72 -3.245,1.731 q -7.18,0.037 -9.524,-0.202 -17.631,-1.79 -34.37,-9.244 c -14.927,-6.653 -28.447,-15.644 -41.072,-26.26 q -8.607,-7.238 -14.707,-12.985 c -0.527,-0.498 -0.892,-0.95 -1.588,-1.246 a 0.146,0.146 0 0 0 -0.199,0.173 93,93 0 0 1 1.556,6.436 3355,3355 0 0 1 7.915,39.61 q 1.354,6.98 1.414,7.393 0.527,3.505 0.329,7.498 c -0.199,4.033 -1.826,7.44 -6.219,7.708 q -6.81,0.408 -14.119,-0.646 c -1.194,-0.17 -3.237,-0.535 -4.356,-1.363 -1.591,-1.178 -2.743,-2.4 -3.446,-3.66 q -3.861,-6.907 -7.666,-15.098 -0.768,-1.653 -4.757,-9.616 a 294,294 0 0 0 -4.98,-9.497 c -7.37,-13.457 -14.614,-26.022 -22.864,-40.39 -1.935,-3.371 -4.155,-7.346 -7.4,-9.623 -2.24,-1.962 -5.63,-3.35 -8.502,-4.134 q -3.422,-0.936 -11.214,-3.108 a 66,66 0 0 1 -3.472,-1.059 q -2.934,-1.002 -3.486,-1.116 a 0.499,0.499 0 0 0 -0.563,0.676 c 0.198,0.48 0.761,0.773 1.252,1.011 a 4146,4146 0 0 0 15.942,7.697 c 0.39,0.188 0.591,0.622 0.483,1.041 q -9.63,37.054 -20.095,77.343 a 35,35 0 0 1 -1.011,3.256 q -0.135,0.36 -0.36,0.665 c -1.806,2.4 -4.332,3.357 -7.335,4.066 -7.687,1.81 -15.28,1.994 -23.347,1.705 q -2.809,-0.097 -4.605,-1.529 c -1.426,-1.134 1.743,-4.827 2.786,-5.868 0.671,-0.669 2.764,-2.103 3.44,-3.625 q 1.125,-2.54 1.115,-5.055 -0.016,-3.104 0.27,-4.582 a 2,2 0 0 0 0.026,-0.615 c -0.109,-0.997 -0.246,-1.67 -0.228,-2.49 q 0.077,-3.83 -0.577,-15.527 -0.948,-16.966 -1.061,-23.85 a 53,53 0 0 0 -0.112,-2.591 c -0.192,-2.768 -0.12,-4.987 -0.293,-9.291 q -0.06,-1.458 -0.433,-18.7 -0.04,-1.7 -0.047,-2.032 -0.135,-6.558 -0.065,-23.037 c 0.011,-2.436 0.184,-4.362 0.239,-6.631 0.06,-2.689 0.155,-4.687 0.277,-5.991 0.105,-1.135 0.3,-3.68 0.975,-4.247 a 0.358,0.358 0 0 1 0.581,0.2 l 2.328,11.039 a 0.417,0.417 0 0 0 0.476,0.322 l 0.148,-0.026 a 0.404,0.404 0 0 0 0.329,-0.48 c -1.329,-6.675 -2.007,-12.75 -2.04,-18.217 -0.046,-8.557 1.018,-17.215 3.202,-25.971 q 4.63,-18.592 13.541,-37.413 a 0.88,0.88 0 0 0 -0.108,-0.925 l -0.015,-0.018 a 0.39,0.39 0 0 0 -0.635,0.04 q -13.825,22.49 -19.915,48.065 a 0.5,0.5 0 0 1 -0.238,0.315 c -0.935,0.531 -2.007,0.737 -3.649,1.156 q -1.309,0.336 -2.678,0.77 c -15.01,4.745 -24.748,8.033 -37.477,10.899 a 0.385,0.385 0 0 0 -0.296,0.44 l 24.455,146.48 a 0.92,0.92 0 0 1 -0.295,0.835 q -0.461,0.407 -1.47,0.864 -6.74,3.051 -14.15,2.72 -0.699,-0.026 -4.898,-0.422 a 0.25,0.25 0 0 1 -0.22,-0.195 c -0.935,-4.268 -1.603,-9.338 -2.747,-16.822 q -0.48,-3.127 -18.479,-122.514 -0.249,-1.642 -0.768,-5.908 a 0.47,0.47 0 0 0 -0.495,-0.408 c -5.348,0.354 -11.304,0.6 -14.743,-3.683 q -0.905,-1.127 -1.566,-3.302 a 71,71 0 0 0 -2.101,-5.862 q -2.035,-4.944 -5.157,-11.98 -3.352,-7.544 -5.194,-15.137 a 20.2,20.2 0 0 1 -0.545,-3.931 c -0.086,-2.273 0.913,-3.672 2.938,-4.846 3.57,-2.07 6.673,-2.627 11.199,-3.502 2.772,-0.535 4.887,-1.2 7.135,-2.363 a 0.24,0.24 0 0 0 0.123,-0.246 q -7.57,-50.438 -13.314,-88.242 a 3767,3767 0 0 0 -3.505,-22.585 c -0.714,-4.532 -2.154,-8.32 -6.417,-10.415 q -1.352,-0.669 -4.843,-1.38 -4.772,-0.972 -10.073,-3.043 -15.185,-5.926 -23.69,-19.37 c -4.858,-7.682 -7.356,-16.68 -8.547,-25.895 -0.022,-0.163 -1.274,-9.254 -3.753,-27.283 a 24,24 0 0 0 -0.574,-2.797 c -0.993,-3.809 -3.912,-5.225 -7.51,-5.796 a 0.19,0.19 0 0 1 -0.156,-0.235 q 0.18,-0.744 0.567,-1.493 5.066,-9.844 13.267,-23.293 c 0.34,-0.557 1.079,-1.244 1.718,-0.868 a 0.99,0.99 0 0 1 0.498,0.716 q 0.714,4.101 1.822,11.78 6.36,44.095 7.219,50.682 c 1.04,8 4.702,15.224 9.827,21.454 q 1.662,2.024 4.83,4.893 c 5.763,5.23 13.617,8.485 21.495,7.094 a 0.27,0.27 0 0 0 0.22,-0.286 163,163 0 0 0 -0.981,-9.507 c -3.858,-28.765 -8.034,-54.924 -12.928,-86.775 a 17.2,17.2 0 0 1 -0.123,-4.217 153,153 0 0 1 2.36,-16.081 c 0.127,-0.618 0.203,-0.958 0.228,-1.012 0.347,-0.759 1.368,-0.715 1.978,-0.43 q 0.307,0.147 0.74,0.922 c 2.703,4.838 5.013,9.453 6.93,13.836 0.819,1.872 1.27,3.38 1.627,5.55 5.439,33.044 9.044,55.37 14.296,84.087 0.62,3.397 1.429,6.84 1.981,9.519 q 0.162,0.796 0.484,1.557 a 0.24,0.24 0 0 0 0.267,0.145 q 6.555,-1.183 11.455,-5.385 c 7.309,-6.27 11.484,-16.33 12.766,-25.95 q 0.706,-5.326 -0.09,-9.84 c -4.996,-28.186 -8.374,-47.393 -11.091,-63.329 -0.062,-0.38 -0.07,-0.849 -0.015,-1.416 a 0.285,0.285 0 0 1 0.213,-0.246 q 1.17,-0.308 2.025,0.426 a 478,478 0 0 1 20.633,18.708 0.355,0.355 0 0 1 -0.032,0.542 c -1.292,0.969 -2.722,1.786 -3.44,2.758 q -1.744,2.364 -1.783,4.527 -0.027,1.772 0.553,4.958 3.275,17.871 5.088,28.299 1.418,8.153 0.74,16.713 -1.082,13.688 -8.835,24.389 c -4.92,6.79 -11.726,12.25 -18.937,16.348 q -2.161,1.229 -3.136,2.284 c -2.819,3.046 -3.227,6.674 -2.588,10.638 q 1.268,7.86 1.62,9.985 a 50922,50922 0 0 0 15.978,95.596 c 0.05,0.292 0.314,0.502 0.61,0.484 q 2.269,-0.145 2.761,2.183 1.658,7.849 2.79,12.615 c 1.404,5.92 2.916,13.743 3.808,18.411 0.01,0.047 0.054,0.084 0.1,0.076 a 0.095,0.095 0 0 0 0.09,-0.094 l 0.322,-12.792 a 0.17,0.17 0 0 1 0.14,-0.163 q 14.543,-2.417 26.502,-4.358 0.883,-0.14 1.863,-1.3 7.236,-8.569 17.114,-19.391 c 1.054,-1.157 2.393,-2.371 3.48,-3.621 q 4.255,-4.906 9.22,-10.473 2.502,-2.801 4.18,-4.112 1.807,-1.415 4.909,-3.23 c 5.204,-3.04 10.708,-5.342 15.299,-6.982 q 2.771,-0.987 4.54,-3.036 a 0.38,0.38 0 0 0 -0.191,-0.614 134,134 0 0 1 -16.927,-5.497 c -8.868,-3.555 -17.519,-8.477 -24.098,-15.415 q -5.89,-6.207 -4.486,-14.777 0.395,-2.423 -1.866,-3.285 -2.475,-0.939 -2.62,-1 c -5.754,-2.342 -9.58,-6.95 -12.68,-12.23 q -9.402,-16.007 -10.16,-34.242 a 61.5,61.5 0 0 1 1.582,-16.728 q 0.535,-2.26 1.422,-4.206 c 0.08,-0.174 0.281,-0.25 0.454,-0.174 q 0.814,0.362 1.588,1.124 c 2.805,2.757 6.06,5.301 9.77,7.64 q 0.245,0.156 0.437,0.162 a 0.205,0.205 0 0 0 0.21,-0.188 c 0.285,-3.025 0.642,-6.613 1.079,-10.769 q 0.617,-5.858 1.176,-8.297 0.715,-3.105 1.422,-6.14 0.2,-0.865 0.076,-1.868 a 1.6,1.6 0 0 0 -0.21,-0.6 q -0.265,-0.434 -1.772,-2.706 c -4.825,-7.303 -7.65,-15.467 -8.3,-24.107 q -0.271,-3.603 -0.271,-3.971 -0.004,-1.626 0.296,-5.51 0.198,-2.592 0.743,-5.465 1.71,-8.987 6.053,-17.418 a 117,117 0 0 1 5.89,-10.129 c 0.253,-0.386 0.7,-0.578 1.122,-0.477 q 1.121,0.266 1.105,1.507 -0.069,4.905 1.184,11.394 c 1.115,5.8 2.901,11.723 5.352,17.761 1.696,4.174 4.446,9.081 8.907,10.657 a 0.19,0.19 0 0 0 0.231,-0.09 q 2.322,-4.255 1.31,-9.01 -0.465,-2.179 -2.382,-5.69 c -1.111,-2.039 -2.902,-3.318 -4.814,-4.576 a 0.612,0.612 0 0 1 0.133,-1.087 c 2.469,-0.879 5.937,-1.164 8.11,-1.16 2.292,0.004 4.908,-0.318 7.34,-0.29 a 4.05,4.05 0 0 0 1.704,-0.321 0.283,0.283 0 0 0 0.09,-0.455 q -1.218,-1.262 -3.475,-2.891 -3.158,-2.283 -5.017,-4.012 -1.25,-1.159 -1.808,-2.226 a 0.522,0.522 0 0 1 0.419,-0.762 24,24 0 0 1 2.854,-0.061 q 8.457,0.328 15.88,1.015 4.274,0.397 9.305,1.265 a 70.7,70.7 0 0 1 19.807,6.522 c 0.097,0.047 0.206,-0.047 0.17,-0.148 q -1.488,-4.356 -0.827,-9.056 c 0.206,-1.463 0.83,-2.753 1.88,-3.873 0.184,-0.2 0.657,-0.409 1.419,-0.636 z"
       id="path8" />
    <path
       d="m 401.536,379.486 c -0.591,-1.123 -0.635,-2.453 -0.205,-4.105 0.617,-2.37 2.403,-4.502 4.305,-6.096 6.183,-5.186 12.806,-9.482 20.255,-12.507 2.905,-1.178 5.684,-1.951 8.77,-1.265 2.512,0.56 4.107,3.535 4.526,5.956 q 0.47,2.72 0.4,4.054 c -0.67,12.547 -10.513,25.137 -24.329,23.384 -5.612,-0.712 -11.065,-4.35 -13.722,-9.42 m -55.01,-23.193 q 0.125,0.047 0.4,0.242 c 9.926,6.967 18.429,14.05 22.07,24.977 0.318,0.954 0.776,2.732 0.235,3.704 -1.213,2.176 -6.139,2.895 -8.247,2.873 -5.583,-0.061 -9.835,-4.343 -12.332,-9.06 -3.703,-7.002 -4.19,-14.566 -2.79,-22.357 a 0.5,0.5 0 0 1 0.664,-0.38"
       style="fill:#ffffff"
       transform="translate(-134.091,-50)"
       id="path10" />
  </g>
</svg>
